#N canvas 226 69 450 300 10;
#X obj 25 26 inlet;
#X text 71 25 bpm;
#X obj 30 258 outlet;
#X text 79 259 msec per beat;
#X obj 25 53 / 60;
#X obj 25 88 t b f;
#X msg 24 118 1000;
#X obj 27 155 /;
#X connect 0 0 4 0;
#X connect 4 0 5 0;
#X connect 5 0 6 0;
#X connect 5 1 7 1;
#X connect 6 0 7 0;
#X connect 7 0 2 0;
