#N canvas 344 91 966 780 10;
#X obj 135 31 inlet;
#X msg 173 31 bang;
#X obj 133 194 line~;
#X msg 133 135 0 5;
#X msg 194 112 1 5;
#X obj 133 246 *~;
#X obj 133 311 *~;
#X obj 148 274 noise~;
#X obj 268 289 sig~;
#X obj 268 266 f \$1;
#X obj 306 289 sig~;
#X obj 306 266 f \$2;
#X obj 173 60 t b b b b;
#X obj 135 475 outlet~;
#X obj 133 112 delay 10;
#X obj 135 440 bp~;
#X connect 0 0 12 0;
#X connect 1 0 12 0;
#X connect 2 0 5 0;
#X connect 2 0 5 1;
#X connect 3 0 2 0;
#X connect 4 0 2 0;
#X connect 5 0 6 0;
#X connect 6 0 15 0;
#X connect 7 0 6 1;
#X connect 8 0 15 1;
#X connect 9 0 8 0;
#X connect 10 0 15 2;
#X connect 11 0 10 0;
#X connect 12 0 14 0;
#X connect 12 1 4 0;
#X connect 12 2 9 0;
#X connect 12 3 11 0;
#X connect 14 0 3 0;
#X connect 15 0 13 0;
