#N canvas 596 50 1031 845 10;
#X obj 105 76 inlet;
#X obj 95 255 line~;
#X obj 95 282 *~;
#X obj 96 715 *~;
#X obj 96 746 outlet~;
#X obj 269 5 inlet;
#X msg 477 226 5;
#X obj 457 258 pack;
#X obj 456 283 line~;
#X obj 455 372 osc~;
#X obj 201 605 *~;
#X obj 112 644 *~;
#X obj 112 677 osc~;
#X obj 261 301 *~;
#X obj 276 267 noise~;
#X obj 261 353 *~;
#X obj 261 382 *~;
#X obj 458 202 t f b b b;
#X obj 508 244 / 100;
#X msg 570 222 5;
#X obj 546 302 pack;
#X obj 547 323 line~;
#X msg 95 231 0 80;
#X obj 507 224 random 50;
#X text 306 3 edits per minute;
#X text 490 371 modulating oscillator;
#X text 145 677 carrier oscillator;
#X obj 458 86 min 250;
#X text 508 79 limiting to 250 for sanity;
#X text 509 90 because we are going to scale and interpret as frequency
;
#X msg 185 162 1;
#X obj 215 161 random 4;
#X obj 215 183 + 3;
#X obj 185 218 pack;
#X obj 96 208 delay;
#X obj 122 162 random 30;
#X obj 123 184 + 10;
#X text -12 251 amplitude and;
#X text -13 264 modulation index;
#X text -13 277 envelope;
#X text 272 252 modulation noise;
#X text 586 322 noise amount;
#X obj 458 180 mtof;
#X obj 458 107 * 0.2;
#X text -7 74 bang/stop messages;
#X obj 105 101 metro;
#X obj 269 27 t f f;
#X obj 232 70 bpm;
#X obj 233 50 * 2.5;
#X obj 457 161 -;
#X floatatom 519 185 5 0 0 0 - - -;
#X obj 458 127 t b f;
#X msg 436 145 80;
#X obj 105 124 t b b b b b b;
#X obj 270 160 random 4;
#X obj 270 210 pack;
#X obj 270 181 + 2;
#X msg 325 160 5;
#X obj 270 231 line~;
#X obj 112 602 *~;
#X text 135 600 index;
#X connect 0 0 45 0;
#X connect 1 0 2 0;
#X connect 1 0 2 1;
#X connect 2 0 3 0;
#X connect 2 0 13 0;
#X connect 2 0 59 0;
#X connect 3 0 4 0;
#X connect 5 0 46 0;
#X connect 6 0 7 1;
#X connect 7 0 8 0;
#X connect 8 0 9 0;
#X connect 8 0 10 0;
#X connect 8 0 15 1;
#X connect 9 0 10 1;
#X connect 10 0 11 1;
#X connect 11 0 12 0;
#X connect 12 0 3 1;
#X connect 13 0 15 0;
#X connect 14 0 13 1;
#X connect 15 0 16 0;
#X connect 16 0 9 0;
#X connect 17 0 7 0;
#X connect 17 1 6 0;
#X connect 17 2 23 0;
#X connect 17 3 19 0;
#X connect 18 0 20 0;
#X connect 19 0 20 1;
#X connect 20 0 21 0;
#X connect 21 0 16 1;
#X connect 22 0 1 0;
#X connect 23 0 18 0;
#X connect 27 0 43 0;
#X connect 30 0 33 0;
#X connect 31 0 32 0;
#X connect 32 0 33 1;
#X connect 33 0 1 0;
#X connect 34 0 22 0;
#X connect 35 0 36 0;
#X connect 36 0 34 1;
#X connect 42 0 17 0;
#X connect 43 0 51 0;
#X connect 45 0 53 0;
#X connect 46 0 48 0;
#X connect 46 1 27 0;
#X connect 47 0 45 1;
#X connect 48 0 47 0;
#X connect 49 0 42 0;
#X connect 49 0 50 0;
#X connect 51 0 52 0;
#X connect 51 1 49 1;
#X connect 52 0 49 0;
#X connect 53 0 34 0;
#X connect 53 1 35 0;
#X connect 53 2 30 0;
#X connect 53 3 31 0;
#X connect 53 4 54 0;
#X connect 53 5 57 0;
#X connect 54 0 56 0;
#X connect 55 0 58 0;
#X connect 56 0 55 0;
#X connect 57 0 55 1;
#X connect 58 0 59 1;
#X connect 59 0 11 0;
