#N canvas 596 50 840 666 10;
#X obj 121 28 inlet;
#X obj 111 187 line~;
#X obj 111 214 *~;
#X obj 111 508 *~;
#X obj 111 539 outlet~;
#X obj 424 39 inlet;
#X msg 443 194 5;
#X obj 423 226 pack;
#X obj 422 251 line~;
#X obj 421 373 osc~;
#X obj 216 398 *~;
#X obj 127 437 *~;
#X obj 127 470 osc~;
#X obj 303 242 *~;
#X obj 318 208 noise~;
#X obj 303 294 *~;
#X obj 303 323 *~;
#X obj 424 170 t f b b b;
#X obj 474 212 / 100;
#X msg 536 190 5;
#X obj 512 270 pack;
#X obj 513 291 line~;
#X msg 111 163 0 80;
#X obj 473 192 random 50;
#X text 461 37 edits per minute;
#X text 121 7 bang to generate (momentary) sound;
#X text 456 372 modulating oscillator;
#X text 160 470 carrier oscillator;
#X obj 424 87 min 250;
#X floatatom 424 60 5 0 0 0 - - -;
#X text 474 80 limiting to 250 for sanity;
#X text 475 91 because we are going to scale and interpret as frequency
;
#X msg 201 94 1;
#X obj 231 93 random 4;
#X obj 231 115 + 3;
#X obj 201 150 pack;
#X obj 112 140 delay;
#X obj 138 94 random 30;
#X obj 139 116 + 10;
#X text 4 183 amplitude and;
#X text 3 196 modulation index;
#X text 3 209 envelope;
#X text 314 193 modulation noise;
#X text 552 290 noise amount;
#X obj 424 148 mtof;
#X obj 424 128 + 60;
#X obj 424 108 * 0.2;
#X obj 121 55 t b b b b b b;
#X obj 308 154 pack;
#X obj 308 132 + 2;
#X msg 373 93 5;
#X obj 309 92 random 40;
#X obj 309 112 / 10;
#X obj 307 175 line~;
#X obj 127 395 *~;
#X connect 0 0 47 0;
#X connect 1 0 2 0;
#X connect 1 0 2 1;
#X connect 2 0 3 0;
#X connect 2 0 13 0;
#X connect 2 0 54 0;
#X connect 3 0 4 0;
#X connect 5 0 29 0;
#X connect 6 0 7 1;
#X connect 7 0 8 0;
#X connect 8 0 9 0;
#X connect 8 0 10 0;
#X connect 8 0 15 1;
#X connect 9 0 10 1;
#X connect 10 0 11 1;
#X connect 11 0 12 0;
#X connect 12 0 3 1;
#X connect 13 0 15 0;
#X connect 14 0 13 1;
#X connect 15 0 16 0;
#X connect 16 0 9 0;
#X connect 17 0 7 0;
#X connect 17 1 6 0;
#X connect 17 2 23 0;
#X connect 17 3 19 0;
#X connect 18 0 20 0;
#X connect 19 0 20 1;
#X connect 20 0 21 0;
#X connect 21 0 16 1;
#X connect 22 0 1 0;
#X connect 23 0 18 0;
#X connect 28 0 46 0;
#X connect 29 0 28 0;
#X connect 32 0 35 0;
#X connect 33 0 34 0;
#X connect 34 0 35 1;
#X connect 35 0 1 0;
#X connect 36 0 22 0;
#X connect 37 0 38 0;
#X connect 38 0 36 1;
#X connect 44 0 17 0;
#X connect 45 0 44 0;
#X connect 46 0 45 0;
#X connect 47 0 36 0;
#X connect 47 1 37 0;
#X connect 47 2 32 0;
#X connect 47 3 33 0;
#X connect 47 4 51 0;
#X connect 47 5 50 0;
#X connect 48 0 53 0;
#X connect 49 0 48 0;
#X connect 50 0 48 1;
#X connect 51 0 52 0;
#X connect 52 0 49 0;
#X connect 53 0 54 1;
#X connect 54 0 11 0;
