#N canvas 344 91 691 569 10;
#X obj 67 31 inlet;
#X msg 105 31 bang;
#X obj 65 186 line~;
#X msg 126 112 1 5;
#X obj 65 213 *~;
#X obj 65 444 *~;
#X obj 64 475 outlet~;
#X obj 105 60 t b b;
#X obj 218 33 inlet;
#X obj 218 56 mtof;
#X text 255 31 comment;
#X msg 237 104 5;
#X obj 217 136 pack;
#X obj 216 161 line~;
#X text 250 55 guessing that treating edits per minute as MIDI pitches
;
#X text 271 69 will be reasonable - probably not actually true;
#X obj 215 304 osc~;
#X obj 163 330 *~;
#X obj 81 373 *~;
#X obj 81 331 *~ 4;
#X obj 80 406 osc~;
#X obj 65 112 delay 25;
#X floatatom 176 81 5 0 0 0 - - -;
#X obj 93 236 *~;
#X obj 108 211 noise~;
#X obj 93 258 *~;
#X obj 94 279 *~;
#X obj 218 80 t f b b b;
#X obj 268 122 / 100;
#X msg 330 100 5;
#X obj 306 180 pack;
#X obj 307 201 line~;
#X msg 64 135 0 80;
#X obj 267 102 random 50;
#X connect 0 0 7 0;
#X connect 1 0 7 0;
#X connect 2 0 4 0;
#X connect 2 0 4 1;
#X connect 3 0 2 0;
#X connect 4 0 5 0;
#X connect 4 0 19 0;
#X connect 4 0 23 0;
#X connect 5 0 6 0;
#X connect 7 0 21 0;
#X connect 7 1 3 0;
#X connect 8 0 9 0;
#X connect 9 0 22 0;
#X connect 9 0 27 0;
#X connect 11 0 12 1;
#X connect 12 0 13 0;
#X connect 13 0 16 0;
#X connect 13 0 17 0;
#X connect 13 0 25 1;
#X connect 16 0 17 1;
#X connect 17 0 18 1;
#X connect 18 0 20 0;
#X connect 19 0 18 0;
#X connect 20 0 5 1;
#X connect 21 0 32 0;
#X connect 23 0 25 0;
#X connect 24 0 23 1;
#X connect 25 0 26 0;
#X connect 26 0 16 0;
#X connect 27 0 12 0;
#X connect 27 1 11 0;
#X connect 27 2 33 0;
#X connect 27 3 29 0;
#X connect 28 0 30 0;
#X connect 29 0 30 1;
#X connect 30 0 31 0;
#X connect 31 0 26 1;
#X connect 32 0 2 0;
#X connect 33 0 28 0;
