#N canvas 596 50 713 651 10;
#X obj 66 34 inlet;
#X obj 65 186 line~;
#X msg 126 112 1 5;
#X obj 65 213 *~;
#X obj 65 507 *~;
#X obj 65 538 outlet~;
#X obj 66 61 t b b;
#X obj 218 33 inlet;
#X msg 237 182 5;
#X obj 217 214 pack;
#X obj 216 239 line~;
#X obj 215 367 osc~;
#X obj 138 395 *~;
#X obj 81 436 *~;
#X obj 81 394 *~ 4;
#X obj 80 469 osc~;
#X obj 65 112 delay 25;
#X obj 93 236 *~;
#X obj 108 211 noise~;
#X obj 93 297 *~;
#X obj 93 326 *~;
#X obj 218 158 t f b b b;
#X obj 268 200 / 100;
#X msg 330 178 5;
#X obj 306 258 pack;
#X obj 307 279 line~;
#X msg 64 135 0 80;
#X obj 267 180 random 50;
#X text 255 31 edits per minute;
#X text 66 13 bang to generate (momentary) sound;
#X text 250 366 modulating oscillator;
#X text 113 469 carrier oscillator;
#X obj 218 81 min 250;
#X floatatom 218 54 5 0 0 0 - - -;
#X text 268 74 limiting to 250 for sanity;
#X text 269 85 because we are going to scale and interpret as frequency
;
#X obj 218 105 * 3.5;
#X obj 218 131 + 65;
#X text 256 104 scale 0-875;
#X text 250 130 and shift to 65 - 940;
#X connect 0 0 6 0;
#X connect 1 0 3 0;
#X connect 1 0 3 1;
#X connect 2 0 1 0;
#X connect 3 0 4 0;
#X connect 3 0 14 0;
#X connect 3 0 17 0;
#X connect 4 0 5 0;
#X connect 6 0 16 0;
#X connect 6 1 2 0;
#X connect 7 0 33 0;
#X connect 8 0 9 1;
#X connect 9 0 10 0;
#X connect 10 0 11 0;
#X connect 10 0 12 0;
#X connect 10 0 19 1;
#X connect 11 0 12 1;
#X connect 12 0 13 1;
#X connect 13 0 15 0;
#X connect 14 0 13 0;
#X connect 15 0 4 1;
#X connect 16 0 26 0;
#X connect 17 0 19 0;
#X connect 18 0 17 1;
#X connect 19 0 20 0;
#X connect 20 0 11 0;
#X connect 21 0 9 0;
#X connect 21 1 8 0;
#X connect 21 2 27 0;
#X connect 21 3 23 0;
#X connect 22 0 24 0;
#X connect 23 0 24 1;
#X connect 24 0 25 0;
#X connect 25 0 20 1;
#X connect 26 0 1 0;
#X connect 27 0 22 0;
#X connect 32 0 36 0;
#X connect 33 0 32 0;
#X connect 36 0 37 0;
#X connect 37 0 21 0;
