#N canvas 344 91 691 569 10;
#X obj 67 31 inlet;
#X msg 105 31 bang;
#X obj 65 194 line~;
#X msg 65 135 0 5;
#X msg 126 112 1 5;
#X obj 65 246 *~;
#X obj 65 403 *~;
#X obj 67 475 outlet~;
#X obj 80 366 osc~ \$1;
#X obj 105 60 t b b;
#X obj 65 112 delay 50;
#X obj 248 33 inlet;
#X obj 248 56 mtof;
#X obj 248 80 t f b;
#X text 285 31 comment;
#X msg 276 104 5;
#X obj 247 136 pack;
#X obj 246 161 line~;
#X text 280 55 guessing that treating edits per minute as MIDI pitches
;
#X text 301 69 will be reasonable - probably not actually true;
#X connect 0 0 9 0;
#X connect 1 0 9 0;
#X connect 2 0 5 0;
#X connect 2 0 5 1;
#X connect 3 0 2 0;
#X connect 4 0 2 0;
#X connect 5 0 6 0;
#X connect 6 0 7 0;
#X connect 8 0 6 1;
#X connect 9 0 10 0;
#X connect 9 1 4 0;
#X connect 10 0 3 0;
#X connect 11 0 12 0;
#X connect 12 0 13 0;
#X connect 13 0 16 0;
#X connect 13 1 15 0;
#X connect 15 0 16 1;
#X connect 16 0 17 0;
#X connect 17 0 8 0;
