#N canvas 329 48 534 335 10;
#X obj 17 16 inlet;
#X obj 17 304 outlet;
#X obj 376 15 inlet;
#X obj 246 16 inlet;
#X text 54 17 stream of bangs to filter;
#X obj 246 117 /;
#X text 285 14 numerator;
#X text 413 15 denominator;
#X obj 17 67 random 1000;
#X obj 18 90 / 1000;
#X obj 17 194 >;
#X obj 246 93 f;
#X obj 376 39 t b f;
#X obj 17 234 sel 1 0;
#X obj 62 304 outlet;
#X connect 0 0 8 0;
#X connect 2 0 12 0;
#X connect 3 0 11 0;
#X connect 5 0 10 1;
#X connect 8 0 9 0;
#X connect 9 0 10 0;
#X connect 10 0 13 0;
#X connect 11 0 5 0;
#X connect 12 0 11 0;
#X connect 12 1 5 1;
#X connect 13 0 1 0;
#X connect 13 1 14 0;
