#N canvas 162 134 878 671 10;
#X declare -lib mrpeach;
#X obj 369 647 dac~;
#X obj 181 272 metro;
#X msg 18 110 bang;
#X msg 20 156 stop;
#X floatatom 210 224 5 0 0 0 - - -;
#X obj 210 203 bpm;
#X floatatom 210 182 5 0 0 0 - - -;
#X obj 529 644 import mrpeach;
#X obj 361 3 udpreceive 9999;
#X obj 361 27 unpackOSC;
#X obj 361 53 routeOSC /wikibeat;
#X floatatom 448 134 5 0 0 0 - - -;
#X floatatom 504 132 5 0 0 0 - - -;
#X floatatom 552 131 5 0 0 0 - - -;
#X floatatom 385 135 5 0 0 0 - - -;
#X obj 286 327 randfilter;
#X text 246 179 set bpm based on /1;
#X obj 385 156 t f f f f;
#X obj 368 536 *~ 0.2;
#X obj 551 155 s d;
#X obj 503 155 s c;
#X obj 447 156 s b;
#X obj 315 281 r d;
#X obj 399 321 r c;
#X obj 475 360 r b;
#X obj 320 430 r d;
#X obj 407 432 r c;
#X obj 496 419 r b;
#X obj 368 608 freeverb~;
#X msg 426 555 dry 0.5;
#X obj 426 534 loadbang;
#X obj 210 162 * 4;
#X obj 282 459 fmramp~;
#X obj 361 78 routeOSC /1 /2 /3 /4 /5 /6 /7 /8 /9 /10;
#X text 620 643 get OSC functionality;
#X text 246 193 (largest number of;
#X text 247 207 edits \, usually en);
#X text 607 85 sorted such that /1 is always largest;
#X text 605 70 top 10 sets of edits split out here;
#X text 459 3 receiving OSC messages on port 9999;
#X text 20 43 to run:;
#X text 19 59 1 start wikipulse and wikibackbeat;
#X text 18 74 2 turn on "compute audio" in Pd;
#X text 31 88 (checkbox in console window or media >> audio ON);
#X text 49 109 3 click "bang" to start;
#X text 51 123 (4. click "stop" to end);
#X text 288 648 audio output;
#X text 282 608 global reverb;
#X text 606 450 fm oscillators;
#X text 207 535 sum fm oscillators output;
#X text 88 327 choose which oscillator to fire;
#X obj 457 393 randfilter;
#X obj 371 357 randfilter;
#X obj 369 460 fmramp~;
#X obj 556 451 fmramp~;
#X obj 459 456 fmramp~;
#X connect 1 0 15 0;
#X connect 2 0 1 0;
#X connect 3 0 1 0;
#X connect 4 0 1 1;
#X connect 5 0 4 0;
#X connect 6 0 5 0;
#X connect 8 0 9 0;
#X connect 9 0 10 0;
#X connect 10 0 33 0;
#X connect 11 0 21 0;
#X connect 12 0 20 0;
#X connect 13 0 19 0;
#X connect 14 0 17 0;
#X connect 15 0 32 0;
#X connect 15 1 52 0;
#X connect 17 0 15 2;
#X connect 17 1 52 2;
#X connect 17 2 51 2;
#X connect 17 3 54 1;
#X connect 18 0 28 0;
#X connect 18 0 28 1;
#X connect 22 0 15 1;
#X connect 23 0 52 1;
#X connect 24 0 51 1;
#X connect 25 0 32 1;
#X connect 26 0 53 1;
#X connect 27 0 55 1;
#X connect 28 0 0 0;
#X connect 28 1 0 1;
#X connect 29 0 28 0;
#X connect 30 0 29 0;
#X connect 31 0 6 0;
#X connect 32 0 18 0;
#X connect 33 0 14 0;
#X connect 33 0 31 0;
#X connect 33 1 11 0;
#X connect 33 2 12 0;
#X connect 33 3 13 0;
#X connect 51 0 55 0;
#X connect 51 1 54 0;
#X connect 52 0 53 0;
#X connect 52 1 51 0;
#X connect 53 0 18 0;
#X connect 54 0 18 0;
#X connect 55 0 18 0;
