#N canvas 174 137 878 671 10;
#X declare -lib mrpeach;
#X obj 285 648 dac~;
#X obj 248 277 metro;
#X msg 199 193 bang;
#X msg 236 193 stop;
#X floatatom 277 193 5 0 0 0 - - -;
#X obj -57 12 import mrpeach;
#X obj 377 2 udpreceive 9999;
#X obj 377 26 unpackOSC;
#X obj 377 52 routeOSC /wikibeat;
#X obj 284 609 freeverb~;
#X obj 214 560 loadbang;
#X text 34 11 get OSC functionality;
#X text 475 2 receiving OSC messages on port 9999;
#X text -48 43 to run:;
#X text -50 74 2 turn on "compute audio" in Pd;
#X text -37 88 (checkbox in console window or media >> audio ON);
#X text -44 117 (4. click "stop" to end);
#X text 204 649 audio output;
#X text 198 609 global reverb;
#X text 145 335 fm oscillators;
#N canvas 595 210 1222 619 20oscillators 0;
#X obj 198 21 inlet;
#X obj 582 589 outlet~;
#X obj 28 476 fmramp~;
#X obj 19 20 inlet;
#X text 236 21 osc messages re frequency;
#X text 56 18 bangs re start event;
#X obj 200 69 routeOSC /1 /2 /3 /4 /5 /6 /7 /8 /9 /10 /11 /12 /13 /14
/15 /16 /17 /18 /19 /20;
#N canvas 418 266 1052 640 distributortwentyelementsintotal 0;
#X obj 18 19 inlet;
#X text 60 19 bang;
#X obj 34 561 outlet;
#X obj 83 561 outlet;
#X obj 132 561 outlet;
#X obj 181 561 outlet;
#X obj 230 562 outlet;
#X obj 279 562 outlet;
#X obj 328 562 outlet;
#X obj 377 562 outlet;
#X obj 427 563 outlet;
#X obj 476 563 outlet;
#X obj 21 96 int;
#X obj 55 96 + 1;
#X obj 19 161 select 0 1 2 3 4 5 6 7 8 9;
#X obj 20 127 mod 20;
#X obj 200 185 select 10 11 12 13 14 15 16 17 18 19;
#X obj 526 561 outlet;
#X obj 575 561 outlet;
#X obj 624 561 outlet;
#X obj 673 561 outlet;
#X obj 722 562 outlet;
#X obj 771 562 outlet;
#X obj 820 562 outlet;
#X obj 869 562 outlet;
#X obj 919 563 outlet;
#X obj 968 563 outlet;
#X connect 0 0 12 0;
#X connect 12 0 13 0;
#X connect 12 0 15 0;
#X connect 13 0 12 1;
#X connect 14 0 2 0;
#X connect 14 1 3 0;
#X connect 14 2 4 0;
#X connect 14 3 5 0;
#X connect 14 4 6 0;
#X connect 14 5 7 0;
#X connect 14 6 8 0;
#X connect 14 7 9 0;
#X connect 14 8 10 0;
#X connect 14 9 11 0;
#X connect 14 10 16 0;
#X connect 15 0 14 0;
#X connect 16 0 17 0;
#X connect 16 1 18 0;
#X connect 16 2 19 0;
#X connect 16 3 20 0;
#X connect 16 4 21 0;
#X connect 16 5 22 0;
#X connect 16 6 23 0;
#X connect 16 7 24 0;
#X connect 16 8 25 0;
#X connect 16 10 26 0;
#X restore -18 82 pd distributortwentyelementsintotal;
#X obj 584 561 *~ 0.04;
#X obj 79 476 fmramp~;
#X obj 129 476 fmramp~;
#X obj 180 476 fmramp~;
#X obj 230 476 fmramp~;
#X obj 281 476 fmramp~;
#X obj 331 476 fmramp~;
#X obj 382 476 fmramp~;
#X obj 433 477 fmramp~;
#X obj 484 477 fmramp~;
#X obj 537 477 fmramp~;
#X obj 588 477 fmramp~;
#X obj 638 477 fmramp~;
#X obj 689 477 fmramp~;
#X obj 739 477 fmramp~;
#X obj 790 477 fmramp~;
#X obj 840 477 fmramp~;
#X obj 891 477 fmramp~;
#X obj 942 478 fmramp~;
#X obj 993 478 fmramp~;
#X connect 0 0 6 0;
#X connect 2 0 8 0;
#X connect 3 0 7 0;
#X connect 6 0 2 1;
#X connect 6 1 9 1;
#X connect 6 2 10 1;
#X connect 6 3 11 1;
#X connect 6 4 12 1;
#X connect 6 5 13 1;
#X connect 6 6 14 1;
#X connect 6 7 15 1;
#X connect 6 8 16 1;
#X connect 6 9 17 1;
#X connect 6 10 18 1;
#X connect 6 11 19 1;
#X connect 6 12 20 1;
#X connect 6 13 21 1;
#X connect 6 14 22 1;
#X connect 6 15 23 1;
#X connect 6 16 24 1;
#X connect 6 17 25 1;
#X connect 6 18 26 1;
#X connect 6 19 27 1;
#X connect 7 0 2 0;
#X connect 7 1 9 0;
#X connect 7 2 10 0;
#X connect 7 3 11 0;
#X connect 7 4 12 0;
#X connect 7 5 13 0;
#X connect 7 6 14 0;
#X connect 7 7 15 0;
#X connect 7 8 16 0;
#X connect 7 9 17 0;
#X connect 7 10 18 0;
#X connect 7 11 19 0;
#X connect 7 12 20 0;
#X connect 7 13 21 0;
#X connect 7 14 22 0;
#X connect 7 15 23 0;
#X connect 7 16 24 0;
#X connect 7 17 25 0;
#X connect 7 18 26 0;
#X connect 7 19 27 0;
#X connect 8 0 1 0;
#X connect 9 0 8 0;
#X connect 10 0 8 0;
#X connect 11 0 8 0;
#X connect 12 0 8 0;
#X connect 13 0 8 0;
#X connect 14 0 8 0;
#X connect 15 0 8 0;
#X connect 16 0 8 0;
#X connect 17 0 8 0;
#X connect 18 0 8 0;
#X connect 19 0 8 0;
#X connect 20 0 8 0;
#X connect 21 0 8 0;
#X connect 22 0 8 0;
#X connect 23 0 8 0;
#X connect 24 0 8 0;
#X connect 25 0 8 0;
#X connect 26 0 8 0;
#X connect 27 0 8 0;
#X restore 248 334 pd 20oscillators;
#N canvas 595 210 1222 619 20oscillators2 0;
#X obj 198 21 inlet;
#X obj 582 589 outlet~;
#X obj 19 20 inlet;
#X text 236 21 osc messages re frequency;
#X text 56 18 bangs re start event;
#X obj 200 69 routeOSC /1 /2 /3 /4 /5 /6 /7 /8 /9 /10 /11 /12 /13 /14
/15 /16 /17 /18 /19 /20;
#N canvas 418 266 1052 640 distributortwentyelementsintotal 0;
#X obj 18 19 inlet;
#X text 60 19 bang;
#X obj 34 561 outlet;
#X obj 83 561 outlet;
#X obj 132 561 outlet;
#X obj 181 561 outlet;
#X obj 230 562 outlet;
#X obj 279 562 outlet;
#X obj 328 562 outlet;
#X obj 377 562 outlet;
#X obj 427 563 outlet;
#X obj 476 563 outlet;
#X obj 19 161 select 0 1 2 3 4 5 6 7 8 9;
#X obj 200 185 select 10 11 12 13 14 15 16 17 18 19;
#X obj 526 561 outlet;
#X obj 575 561 outlet;
#X obj 624 561 outlet;
#X obj 673 561 outlet;
#X obj 722 562 outlet;
#X obj 771 562 outlet;
#X obj 820 562 outlet;
#X obj 869 562 outlet;
#X obj 919 563 outlet;
#X obj 968 563 outlet;
#X obj 20 127 random 20;
#X connect 0 0 24 0;
#X connect 12 0 2 0;
#X connect 12 1 3 0;
#X connect 12 2 4 0;
#X connect 12 3 5 0;
#X connect 12 4 6 0;
#X connect 12 5 7 0;
#X connect 12 6 8 0;
#X connect 12 7 9 0;
#X connect 12 8 10 0;
#X connect 12 9 11 0;
#X connect 12 10 13 0;
#X connect 13 0 14 0;
#X connect 13 1 15 0;
#X connect 13 2 16 0;
#X connect 13 3 17 0;
#X connect 13 4 18 0;
#X connect 13 5 19 0;
#X connect 13 6 20 0;
#X connect 13 7 21 0;
#X connect 13 8 22 0;
#X connect 13 10 23 0;
#X connect 24 0 12 0;
#X restore -18 82 pd distributortwentyelementsintotal;
#X obj 584 561 *~ 0.04;
#X obj 28 476 fmramp~;
#X obj 79 476 fmramp~;
#X obj 129 476 fmramp~;
#X obj 180 476 fmramp~;
#X obj 230 476 fmramp~;
#X obj 281 476 fmramp~;
#X obj 331 476 fmramp~;
#X obj 382 476 fmramp~;
#X obj 433 477 fmramp~;
#X obj 484 477 fmramp~;
#X obj 537 477 fmramp~;
#X obj 588 477 fmramp~;
#X obj 638 477 fmramp~;
#X obj 689 477 fmramp~;
#X obj 739 477 fmramp~;
#X obj 790 477 fmramp~;
#X obj 840 477 fmramp~;
#X obj 891 477 fmramp~;
#X obj 942 478 fmramp~;
#X obj 993 478 fmramp~;
#X connect 0 0 5 0;
#X connect 2 0 6 0;
#X connect 5 0 8 1;
#X connect 5 1 9 1;
#X connect 5 2 10 1;
#X connect 5 3 11 1;
#X connect 5 4 12 1;
#X connect 5 5 13 1;
#X connect 5 6 14 1;
#X connect 5 7 15 1;
#X connect 5 8 16 1;
#X connect 5 9 17 1;
#X connect 5 10 18 1;
#X connect 5 11 19 1;
#X connect 5 12 20 1;
#X connect 5 13 21 1;
#X connect 5 14 22 1;
#X connect 5 15 23 1;
#X connect 5 16 24 1;
#X connect 5 17 25 1;
#X connect 5 18 26 1;
#X connect 5 19 27 1;
#X connect 6 0 8 0;
#X connect 6 1 9 0;
#X connect 6 2 10 0;
#X connect 6 3 11 0;
#X connect 6 4 12 0;
#X connect 6 5 13 0;
#X connect 6 6 14 0;
#X connect 6 7 15 0;
#X connect 6 8 16 0;
#X connect 6 9 17 0;
#X connect 6 10 18 0;
#X connect 6 11 19 0;
#X connect 6 12 20 0;
#X connect 6 13 21 0;
#X connect 6 14 22 0;
#X connect 6 15 23 0;
#X connect 6 16 24 0;
#X connect 6 17 25 0;
#X connect 6 18 26 0;
#X connect 6 19 27 0;
#X connect 7 0 1 0;
#X connect 8 0 7 0;
#X connect 9 0 7 0;
#X connect 10 0 7 0;
#X connect 11 0 7 0;
#X connect 12 0 7 0;
#X connect 13 0 7 0;
#X connect 14 0 7 0;
#X connect 15 0 7 0;
#X connect 16 0 7 0;
#X connect 17 0 7 0;
#X connect 18 0 7 0;
#X connect 19 0 7 0;
#X connect 20 0 7 0;
#X connect 21 0 7 0;
#X connect 22 0 7 0;
#X connect 23 0 7 0;
#X connect 24 0 7 0;
#X connect 25 0 7 0;
#X connect 26 0 7 0;
#X connect 27 0 7 0;
#X restore 358 334 pd 20oscillators2;
#X obj 277 78 routeOSC /1 /2;
#N canvas 595 210 1222 619 20oscillators3 0;
#X obj 198 21 inlet;
#X obj 582 589 outlet~;
#X obj 19 21 inlet;
#X text 236 21 osc messages re frequency;
#X obj 200 69 routeOSC /1 /2 /3 /4 /5 /6 /7 /8 /9 /10 /11 /12 /13 /14
/15 /16 /17 /18 /19 /20;
#X obj 584 561 *~ 0.04;
#X text 56 18 bang/stop;
#X obj 22 476 fmramp2~;
#X obj 993 478 fmramp2~;
#X obj 942 478 fmramp2~;
#X obj 79 476 fmramp2~;
#X obj 129 476 fmramp2~;
#X obj 180 476 fmramp2~;
#X obj 230 476 fmramp2~;
#X obj 281 476 fmramp2~;
#X obj 331 476 fmramp2~;
#X obj 383 476 fmramp2~;
#X obj 433 477 fmramp2~;
#X obj 484 477 fmramp2~;
#X obj 537 477 fmramp2~;
#X obj 588 477 fmramp2~;
#X obj 638 477 fmramp2~;
#X obj 690 477 fmramp2~;
#X obj 739 477 fmramp2~;
#X obj 790 477 fmramp2~;
#X obj 841 477 fmramp2~;
#X obj 891 477 fmramp2~;
#X connect 0 0 4 0;
#X connect 2 0 7 0;
#X connect 2 0 8 0;
#X connect 2 0 9 0;
#X connect 2 0 10 0;
#X connect 2 0 11 0;
#X connect 2 0 12 0;
#X connect 2 0 13 0;
#X connect 2 0 14 0;
#X connect 2 0 15 0;
#X connect 2 0 16 0;
#X connect 2 0 17 0;
#X connect 2 0 18 0;
#X connect 2 0 19 0;
#X connect 2 0 20 0;
#X connect 2 0 21 0;
#X connect 2 0 22 0;
#X connect 2 0 23 0;
#X connect 2 0 24 0;
#X connect 2 0 25 0;
#X connect 2 0 26 0;
#X connect 4 0 7 1;
#X connect 4 1 10 1;
#X connect 4 2 11 1;
#X connect 4 3 12 1;
#X connect 4 4 13 1;
#X connect 4 5 14 1;
#X connect 4 6 15 1;
#X connect 4 7 16 1;
#X connect 4 8 17 1;
#X connect 4 9 18 1;
#X connect 4 10 19 1;
#X connect 4 11 20 1;
#X connect 4 12 21 1;
#X connect 4 13 22 1;
#X connect 4 14 23 1;
#X connect 4 15 24 1;
#X connect 4 16 25 1;
#X connect 4 17 26 1;
#X connect 4 18 9 1;
#X connect 4 19 8 1;
#X connect 5 0 1 0;
#X connect 7 0 5 0;
#X connect 8 0 5 0;
#X connect 9 0 5 0;
#X connect 10 0 5 0;
#X connect 11 0 5 0;
#X connect 12 0 5 0;
#X connect 13 0 5 0;
#X connect 14 0 5 0;
#X connect 15 0 5 0;
#X connect 16 0 5 0;
#X connect 17 0 5 0;
#X connect 18 0 5 0;
#X connect 19 0 5 0;
#X connect 20 0 5 0;
#X connect 21 0 5 0;
#X connect 22 0 5 0;
#X connect 23 0 5 0;
#X connect 24 0 5 0;
#X connect 25 0 5 0;
#X connect 26 0 5 0;
#X restore 471 334 pd 20oscillators3;
#X msg 214 581 dry 0.7;
#X obj 277 153 loadbang;
#X msg 277 173 100;
#X msg 556 238 bang;
#X msg 593 238 stop;
#X text 34 193 sonification mode 1 on/off;
#X text 554 109 sonification mode 2 on/off;
#X text 626 238 sonification mode 3 on/off;
#X text 33 205 (looping through each;
#X text 628 251 (pulsing each database;
#X text 630 264 at its own edit-frequency-;
#X text 629 276 determined tempo - fastest;
#X text 629 290 edit frequencies are lowest;
#X text 631 302 pitches);
#X text 34 219 database in sequence \, highest;
#X text 32 232 pitches are highest edit;
#X text 32 246 frequencies);
#X text 558 120 (randomly skipping between databases;
#X text 562 133 instead of looping);
#X text -48 58 1 start redis-server \, wikipulse and backbeat.py;
#X text -45 103 3 click one of the "bang" messages to start;
#X obj 476 136 metro;
#X msg 437 109 bang;
#X msg 474 109 stop;
#X floatatom 515 109 5 0 0 0 - - -;
#X obj 515 69 loadbang;
#X msg 515 89 100;
#X obj 421 646 writesf~ 2;
#X msg 421 480 open wikibeat-recording.wav;
#X text 422 460 to record:;
#X text 594 480 1 click "open" to create soundfile;
#X msg 428 500 bang;
#X msg 438 519 stop;
#X text 470 519 3 click "stop" to stop recording;
#X text 461 500 2 click "bang" to start recording;
#X text 445 537 Afterwards you should have a 16-bit \, 44.1 kHz uncompressed
;
#X text 443 551 WAV-format audio file in your code directory. You may
wish;
#X text 446 564 to rename this file and/or use an audio editor such
as;
#X text 444 578 Audacity to normalize it (increase its amplitude to
maximum;
#X text 444 592 level) and/or render a compressed MP3 file \, or subject
it to;
#X text 446 605 additional craziness of your choosing.;
#X connect 1 0 20 0;
#X connect 2 0 1 0;
#X connect 3 0 1 0;
#X connect 4 0 1 1;
#X connect 6 0 7 0;
#X connect 7 0 8 0;
#X connect 8 0 22 0;
#X connect 8 0 23 1;
#X connect 8 0 21 1;
#X connect 8 0 20 1;
#X connect 9 0 0 0;
#X connect 9 0 51 0;
#X connect 9 1 0 1;
#X connect 9 1 51 1;
#X connect 10 0 24 0;
#X connect 20 0 9 0;
#X connect 20 0 9 1;
#X connect 21 0 9 0;
#X connect 21 0 9 1;
#X connect 23 0 9 1;
#X connect 23 0 9 0;
#X connect 24 0 9 0;
#X connect 25 0 26 0;
#X connect 26 0 4 0;
#X connect 27 0 23 0;
#X connect 28 0 23 0;
#X connect 45 0 21 0;
#X connect 46 0 45 0;
#X connect 47 0 45 0;
#X connect 48 0 45 1;
#X connect 49 0 50 0;
#X connect 50 0 48 0;
#X connect 52 0 51 0;
#X connect 55 0 51 0;
#X connect 56 0 51 0;
