#N canvas 312 138 878 671 10;
#X declare -lib mrpeach;
#X obj 155 622 dac~;
#X obj 158 384 metro;
#X obj 265 384 metro;
#X obj 365 383 metro;
#X obj 472 383 metro;
#X msg 158 245 bang;
#X msg 195 245 stop;
#X floatatom 243 243 5 0 0 0 - - -;
#X floatatom 279 243 5 0 0 0 - - -;
#X floatatom 315 243 5 0 0 0 - - -;
#X floatatom 351 243 5 0 0 0 - - -;
#X obj 246 209 bpm;
#X floatatom 246 176 5 0 0 0 - - -;
#X obj 281 208 bpm;
#X floatatom 281 175 5 0 0 0 - - -;
#X obj 317 207 bpm;
#X floatatom 317 174 5 0 0 0 - - -;
#X obj 352 206 bpm;
#X floatatom 352 173 5 0 0 0 - - -;
#X obj 19 20 import mrpeach;
#X obj 151 33 udpreceive 9999;
#X obj 151 57 unpackOSC;
#X obj 151 108 routeOSC /1 /2 /3 /4;
#X obj 363 465 filterclick~ 500 3;
#X obj 491 465 filterclick~ 900 3;
#X obj 97 466 filterclick~ 600 3;
#X obj 238 466 filterclick~ 400 3;
#X obj 155 577 *~ 0.2;
#X obj 362 576 *~ 0.2;
#X obj 151 83 routeOSC /wikibeat;
#X connect 1 0 25 0;
#X connect 2 0 26 0;
#X connect 3 0 23 0;
#X connect 4 0 24 0;
#X connect 5 0 1 0;
#X connect 5 0 2 0;
#X connect 5 0 3 0;
#X connect 5 0 4 0;
#X connect 6 0 1 0;
#X connect 6 0 2 0;
#X connect 6 0 3 0;
#X connect 6 0 4 0;
#X connect 7 0 1 1;
#X connect 8 0 2 1;
#X connect 9 0 3 1;
#X connect 10 0 4 1;
#X connect 11 0 7 0;
#X connect 12 0 11 0;
#X connect 13 0 8 0;
#X connect 14 0 13 0;
#X connect 15 0 9 0;
#X connect 16 0 15 0;
#X connect 17 0 10 0;
#X connect 18 0 17 0;
#X connect 20 0 21 0;
#X connect 21 0 29 0;
#X connect 22 0 12 0;
#X connect 22 1 14 0;
#X connect 22 2 16 0;
#X connect 22 3 18 0;
#X connect 23 0 28 0;
#X connect 24 0 28 0;
#X connect 25 0 27 0;
#X connect 26 0 27 0;
#X connect 27 0 0 0;
#X connect 28 0 0 1;
#X connect 29 0 22 0;
