#N canvas 162 134 878 671 10;
#X declare -lib mrpeach;
#X obj 371 622 dac~;
#X obj 51 220 metro;
#X msg 52 135 bang;
#X msg 89 135 stop;
#X floatatom 126 177 5 0 0 0 - - -;
#X obj 126 156 bpm;
#X floatatom 126 137 5 0 0 0 - - -;
#X obj 19 20 import mrpeach;
#X obj 361 3 udpreceive 9999;
#X obj 361 27 unpackOSC;
#X obj 361 78 routeOSC /1 /2 /3 /4;
#X obj 361 53 routeOSC /wikibeat;
#X floatatom 448 134 5 0 0 0 - - -;
#X floatatom 504 132 5 0 0 0 - - -;
#X floatatom 552 134 5 0 0 0 - - -;
#X floatatom 385 135 5 0 0 0 - - -;
#X obj 556 451 oscramp~ 300;
#X obj 286 327 randfilter;
#X text 163 141 set bpm based on /1;
#X obj 459 456 oscramp~ 400;
#X obj 369 460 oscramp~ 500;
#X obj 282 459 oscramp~ 600;
#X obj 457 393 randfilter;
#X obj 371 357 randfilter;
#X obj 385 156 t f f f f;
#X obj 368 571 *~ 0.2;
#X obj 551 155 s d;
#X obj 503 155 s c;
#X obj 447 156 s b;
#X obj 315 281 r d;
#X obj 399 321 r c;
#X obj 475 360 r b;
#X obj 320 427 r d;
#X obj 429 426 r c;
#X obj 496 419 r b;
#X connect 1 0 17 0;
#X connect 2 0 1 0;
#X connect 3 0 1 0;
#X connect 4 0 1 1;
#X connect 5 0 4 0;
#X connect 6 0 5 0;
#X connect 8 0 9 0;
#X connect 9 0 11 0;
#X connect 10 0 15 0;
#X connect 10 0 6 0;
#X connect 10 1 12 0;
#X connect 10 2 13 0;
#X connect 10 3 14 0;
#X connect 11 0 10 0;
#X connect 12 0 28 0;
#X connect 14 0 26 0;
#X connect 15 0 24 0;
#X connect 16 0 25 0;
#X connect 17 0 21 0;
#X connect 17 1 23 0;
#X connect 19 0 25 0;
#X connect 20 0 25 0;
#X connect 21 0 25 0;
#X connect 22 0 19 0;
#X connect 22 1 16 0;
#X connect 23 0 20 0;
#X connect 23 1 22 0;
#X connect 24 0 17 2;
#X connect 24 1 23 2;
#X connect 24 2 22 2;
#X connect 24 3 16 1;
#X connect 25 0 0 0;
#X connect 25 0 0 1;
#X connect 29 0 17 1;
#X connect 30 0 23 1;
#X connect 31 0 22 1;
#X connect 32 0 21 1;
#X connect 33 0 20 1;
#X connect 34 0 19 1;
