#N canvas 162 134 878 671 10;
#X declare -lib mrpeach;
#X obj 155 622 dac~;
#X obj 40 178 metro;
#X msg 41 93 bang;
#X msg 78 93 stop;
#X floatatom 115 135 5 0 0 0 - - -;
#X obj 115 114 bpm;
#X floatatom 115 95 5 0 0 0 - - -;
#X obj 19 20 import mrpeach;
#X obj 570 9 udpreceive 9999;
#X obj 570 33 unpackOSC;
#X obj 570 84 routeOSC /1 /2 /3 /4;
#X obj 155 577 *~ 0.2;
#X obj 362 576 *~ 0.2;
#X obj 570 59 routeOSC /wikibeat;
#X obj 38 202 t b b b b;
#X obj 232 341 randfilter;
#X obj 569 199 t f f f;
#X floatatom 421 201 5 0 0 0 - - -;
#X floatatom 477 199 5 0 0 0 - - -;
#X floatatom 525 201 5 0 0 0 - - -;
#X floatatom 570 179 5 0 0 0 - - -;
#X obj 97 466 oscramp~ 300;
#X obj 365 338 randfilter;
#X obj 495 333 randfilter;
#X text 152 99 set bpm based on /1;
#X obj 238 466 oscramp~ 400;
#X obj 363 465 oscramp~ 500;
#X obj 491 465 oscramp~ 600;
#X connect 1 0 14 0;
#X connect 2 0 1 0;
#X connect 3 0 1 0;
#X connect 4 0 1 1;
#X connect 5 0 4 0;
#X connect 6 0 5 0;
#X connect 8 0 9 0;
#X connect 9 0 13 0;
#X connect 10 0 20 0;
#X connect 10 0 6 0;
#X connect 10 1 17 0;
#X connect 10 2 18 0;
#X connect 10 3 19 0;
#X connect 11 0 0 0;
#X connect 12 0 0 1;
#X connect 13 0 10 0;
#X connect 14 0 21 0;
#X connect 14 1 15 0;
#X connect 14 2 22 0;
#X connect 14 3 23 0;
#X connect 15 0 25 0;
#X connect 16 0 15 2;
#X connect 16 1 22 2;
#X connect 16 2 23 2;
#X connect 17 0 15 1;
#X connect 18 0 22 1;
#X connect 19 0 23 1;
#X connect 20 0 16 0;
#X connect 21 0 11 0;
#X connect 22 0 26 0;
#X connect 23 0 27 0;
#X connect 25 0 11 0;
#X connect 26 0 12 0;
#X connect 27 0 12 0;
